# AST/ASF file generated using VICON BodyLanguage
# -----------------------------------------------
:version 1.10
:name VICON
:units
  mass 1.0
  length 0.45
  angle deg
:documentation
   .ast/.asf automatically generated from VICON data using
   VICON BodyBuilder and BodyLanguage model FoxedUp or BRILLIANT.MOD
:root
   order TX TY TZ RX RY RZ
   axis XYZ
   position 0 0 0  
   orientation 0 0 0 
:bonedata
  begin
     id 1 
     name lhipjoint
     direction 0.578396 -0.714046 0.394458 
     length 2.21935 
     axis 0 0 0  XYZ
  end
  begin
     id 2 
     name lfemur
     direction 0.34202 -0.939693 0  
     length 6.39105  
     axis 0 0 20  XYZ
    dof rx ry rz
    limits (-160.0 20.0)
           (-70.0 70.0)
           (-60.0 70.0)
  end
  begin
     id 3 
     name ltibia
     direction 0.34202 -0.939693 0   
     length 6.99037   
     axis 0 0 20   XYZ
    dof rx
    limits (-10.0 170.0)
  end
  begin
     id 4 
     name lfoot
     direction 0.0582372 -0.160005 0.985397   
     length 2.06111   
     axis -90 7.62852e-016 20   XYZ
    dof rx rz
    limits (-45.0 90.0)
           (-70.0 20.0)
  end
  begin
     id 5 
     name ltoes
     direction 1.53556e-011 -4.21875e-011 1   
     length 1.04074   
     axis -90 7.62852e-016 20   XYZ
    dof rx
    limits (-90.0 20.0)
  end
  begin
     id 6 
     name rhipjoint
     direction -0.558179 -0.726269 0.40121   
     length 2.182  
     axis 0 0 0  XYZ 
  end
  begin
     id 7 
     name rfemur
     direction -0.34202 -0.939693 0   
     length 6.51172   
     axis 0 0 -20   XYZ
    dof rx ry rz
    limits (-160.0 20.0)
           (-70.0 70.0)
           (-70.0 60.0)
  end
  begin
     id 8 
     name rtibia
     direction -0.34202 -0.939693 0   
     length 7.02607   
     axis 0 0 -20   XYZ
    dof rx
    limits (-10.0 170.0)
 end
 begin
     id 9 
     name rfoot
     direction -0.0788856 -0.216737 0.973038   
     length 1.96734  
     axis -90 -7.62852e-016 -20   XYZ
    dof rx rz
    limits (-45.0 90.0)
           (-20.0 70.0)
  end
  begin
     id 10 
     name rtoes
     direction -1.53567e-011 -4.21783e-011 1   
     length 0.990825   
     axis -90 -7.62852e-016 -20   XYZ
    dof rx
    limits (-90.0 20.0)
  end
  begin
     id 11 
     name lowerback
     direction 0.00668177 0.999323 -0.0361741   
     length 1.7655   
     axis 0 0 0   XYZ
    dof rx ry rz
    limits (-20.0 45.0)
           (-30.0 30.0)
           (-30.0 30.0)
  end
  begin
     id 12 
     name upperback
     direction -0.00222086 0.99851 0.0545167   
     length 1.74912   
     axis 0 0 0   XYZ
    dof rx ry rz
    limits (-20.0 45.0)
           (-30.0 30.0)
           (-30.0 30.0)
  end
  begin
     id 13 
     name thorax
     direction -0.00733971 0.997496 0.0703443   
     length 1.75715   
     axis 0 0 0   XYZ
    dof rx ry rz
    limits (-20.0 45.0)
           (-30.0 30.0)
           (-30.0 30.0)
  end
  begin
     id 14 
     name lowerneck
     direction 0.0279797 0.994795 0.0979765   
     length 1.46939   
     axis 0 0 0   XYZ
    dof rx ry rz
    limits (-20.0 45.0)
           (-30.0 30.0)
           (-30.0 30.0)
  end
  begin
     id 15 
     name upperneck
     direction 0.00339187 0.976776 -0.214238   
     length 1.48018   
     axis 0 0 0   XYZ
    dof rx ry rz
    limits (-20.0 45.0)
           (-30.0 30.0)
           (-30.0 30.0)
  end
  begin
     id 16
     name head
     direction -0.00263506 0.996603 -0.0823096  
     length 1.4976  
     axis 0 0 0   XYZ
    dof rx ry rz
    limits (-20.0 45.0)
           (-30.0 30.0)
           (-30.0 30.0)
  end
  begin
     id 17 
     name lclavicle
     direction 0.894044 0.44508 -0.0508781  
     length 3.03024  
     axis 0 0 0   XYZ
    dof ry rz
    limits (-20.0 10.0)
           (0.0 20.0)
  end
  begin
     id 18 
     name lhumerus
     direction 1 -4.48961e-011 -2.39475e-018   
     length 4.4661   
     axis 180 -30 -90   XYZ
    dof rx ry rz
    limits (-60.0 90.0)
           (-90.0 90.0)
           (-90.0 90.0)
  end
  begin
     id 19
     name lradius
     direction 1 -4.48961e-011 9.29328e-028   
     length 3.41414   
     axis 180 -30 -90   XYZ
    dof rx
    limits (-10.0 170.0)
  end
  begin
     id 20
     name lwrist
     direction 1 -4.48985e-011 1.53461e-026   
     length 1.70707   
     axis -1.09697e-014 90 90   XYZ
    dof ry
    limits (-180.0 0.0)
 end
  begin
     id 21 
     name lhand
     direction 1 -4.48966e-011 3.06923e-026   
     length 0.328298   
     axis -1.95843e-014 90 90   XYZ
    dof rx rz
    limits (-90.0 90.0)
           (-45.0 45.0)
  end
  begin
     id 22 
     name lfingers
     direction 1 -4.48893e-011 6.13845e-026   
     length 0.264682   
     axis -3.91686e-014 90 90   XYZ
    dof rx
    limits (0.0 90.0)
  end
  begin
     id 23
     name lthumb
     direction 0.707107 -6.34876e-011 0.707107   
     length 0.380032   
     axis -90 45 2.85299e-015   XYZ
    dof rx rz
    limits (-45.0 45.0)
           (-45.0 45.0)
  end
  begin
     id 24 
     name rclavicle
     direction -0.936955 0.347862 -0.0332887   
     length 3.26927  
     axis 0 0 0   XYZ 
    dof ry rz
    limits (-10.0 20.0)
           (-20.0 0.0)
  end
  begin
     id 25 
     name rhumerus
     direction -1 -4.4896e-011 1.78637e-018  
     length 4.40431   
     axis 180 30 90   XYZ
    dof rx ry rz
    limits (-90.0 60.0)
           (-90.0 90.0)
           (-90.0 90.0)
  end
  begin
     id 26 
     name rradius
     direction -1 -4.48955e-011 9.34036e-027   
     length 3.04688   
     axis 180 30 90   XYZ
    dof rx
    limits (-10.0 170.0)
  end
  begin
     id 27 
     name rwrist
     direction -1 -4.49011e-011 1.53461e-026   
     length 1.52344   
     axis -1.09697e-014 -90 -90   XYZ
    dof ry
    limits (-180.0 0.0)
  end
  begin
     id 28
     name rhand
     direction -1 -4.48834e-011 3.06923e-026   
     length 0.500489   
     axis -1.95843e-014 -90 -90   XYZ
    dof rx rz
    limits (-90.0 90.0)
           (-45.0 45.0)
  end
  begin
     id 29
     name rfingers
     direction -1 -4.48967e-011 6.13845e-026   
     length 0.403507   
     axis -3.91686e-014 -90 -90   XYZ
    dof rx
    limits (0.0 90.0)
  end
  begin
     id 30
     name rthumb
     direction -0.707107 -6.34826e-011 0.707107   
     length 0.579358   
     axis -90 -45 -2.85299e-015   XYZ
    dof rx rz
    limits (-45.0 45.0)
           (-45.0 45.0)
  end
:hierarchy
  begin
    root lhipjoint rhipjoint lowerback
    lhipjoint lfemur
    lfemur ltibia
    ltibia lfoot
    lfoot ltoes
    rhipjoint rfemur
    rfemur rtibia
    rtibia rfoot
    rfoot rtoes
    lowerback upperback
    upperback thorax
    thorax lowerneck lclavicle rclavicle
    lowerneck upperneck
    upperneck head
    lclavicle lhumerus
    lhumerus lradius
    lradius lwrist
    lwrist lhand lthumb
    lhand lfingers
    rclavicle rhumerus
    rhumerus rradius
    rradius rwrist
    rwrist rhand rthumb
    rhand rfingers
  end

#!OML:ASF H:\IndianDance\Patient Classification 1\Patient 1\Session 1\dancer.ASF
:FULLY-SPECIFIED
:DEGREES
1229
root -3.83003 15.1286 13.9385 -174.539 29.229 -178.318
lowerback 6.48521 -0.828632 -2.63497
upperback -4.6769 -1.22845 1.00003
thorax -8.50459 -0.375655 2.70212
lowerneck -10.1492 -12.0853 -10.7295
upperneck 17.3922 -16.6991 11.5202
head 9.01346 -7.43566 3.60608
rclavicle -2.31522e-014 5.86415e-015
rhumerus -5.31342 10.2589 -33.3587
rradius 64.0481
rwrist -63.5263
rhand -13.4162 -0.489099
rfingers 7.12502
rthumb 12.692 329.917
lclavicle -2.31522e-014 5.86415e-015
lhumerus -13.6847 -52.2386 16.0667
lradius 129.899
lwrist 52.5751
lhand -11.4168 8.5069
lfingers 7.12502
lthumb 14.6189 -322.028
rfemur -399.376 -15.1339 376.474
rtibia 55.5354
rfoot -0.389693 1.37009
rtoes 4.62485
lfemur -3.27716 5.40825 -9.2849
ltibia 30.8334
lfoot -17.1964 6.98624
ltoes -17.6564
1230
root -3.92435 15.1237 13.949 -174.714 30.0365 -178.763
lowerback 6.76135 -0.760146 -3.06188
upperback -4.63129 -1.20128 0.916148
thorax -8.61479 -0.340485 2.85599
lowerneck -10.2665 -12.0714 -10.6626
upperneck 17.2411 -16.6957 11.6216
head 8.98649 -7.42345 3.62424
rclavicle -7.18793e-014 -4.27387e-015
rhumerus -5.02117 9.33935 -33.9658
rradius 65.4413
rwrist -66.6093
rhand -13.5864 -1.36112
rfingers 7.12502
rthumb 12.5279 329.034
lclavicle -7.18793e-014 -4.27387e-015
lhumerus -14.194 -51.848 16.0629
lradius 130.318
lwrist 54.2329
lhand -11.4167 9.06004
lfingers 7.12502
lthumb 14.619 -321.475
rfemur -401.456 -15.9408 376.474
rtibia 57.5868
rfoot 1.83046 1.31526
rtoes 7.46979
lfemur -2.89129 6.66223 -10.0331
ltibia 30.0418
lfoot -17.5713 6.88637
ltoes -16.895
1231
root -4.01714 15.115 13.962 -174.971 30.8236 -179.306
lowerback 7.10471 -0.695195 -3.57692
upperback -4.59151 -1.19676 0.792877
thorax -8.7696 -0.310807 3.02222
lowerneck -10.356 -12.0575 -10.5945
upperneck 17.0679 -16.6933 11.7275
head 8.94748 -7.41318 3.64525
rclavicle 2.75472e-014 1.70955e-014
rhumerus -4.7669 8.40831 -34.6435
rradius 66.8818
rwrist -69.6974
rhand -13.9124 -2.19326
rfingers 7.12502
rthumb 12.2135 328.183
lclavicle 2.75472e-014 1.70955e-014
lhumerus -14.6552 -51.4589 15.9885
lradius 130.744
lwrist 55.8928
lhand -11.4244 9.68125
lfingers 7.12502
lthumb 14.6116 -320.853
rfemur -403.696 -16.8523 376.544
rtibia 59.8641
rfoot 4.15085 0.936601
rtoes 10.6057
lfemur -2.54386 7.95279 -10.8409
ltibia 29.3318
lfoot -17.9559 6.72812
ltoes -16.1152
1232
root -4.10809 15.1026 13.9772 -175.316 31.5736 -179.937
lowerback 7.51566 -0.630575 -4.16135
upperback -4.55276 -1.2103 0.634166
thorax -8.96455 -0.284954 3.19368
lowerneck -10.4163 -12.0504 -10.5409
upperneck 16.8663 -16.6995 11.8441
head 8.89703 -7.40931 3.67221
rclavicle -4.75033e-014 -2.39536e-014
rhumerus -4.55987 7.46027 -35.3759
rradius 68.3653
rwrist -72.7435
rhand -14.3667 -2.98381
rfingers 7.12502
rthumb 11.7755 327.367
lclavicle -4.75033e-014 -2.39536e-014
lhumerus -15.0443 -51.0706 15.8571
lradius 131.162
lwrist 57.5378
lhand -11.4607 10.3936
lfingers 7.12502
lthumb 14.5766 -320.139
rfemur -406.072 -17.8573 376.702
rtibia 62.3724
rfoot 6.51431 0.289678
rtoes 13.9097
lfemur -2.23621 9.20437 -11.7029
ltibia 28.7219
lfoot -18.3417 6.56826
ltoes -15.4883
1233
root -4.19716 15.0869 13.9938 -175.75 32.2683 -180.652
lowerback 7.97863 -0.574729 -4.80891
upperback -4.50601 -1.25319 0.4481
thorax -9.17935 -0.268668 3.37663
lowerneck -10.4491 -12.044 -10.5039
upperneck 16.6263 -16.7043 11.9722
head 8.83119 -7.40774 3.70722
rclavicle -1.08664e-013 -1.50082e-014
rhumerus -4.38142 6.50923 -36.1573
rradius 69.8889
rwrist -75.6948
rhand -14.9348 -3.75026
rfingers 7.12502
rthumb 11.2276 326.57
lclavicle -1.08664e-013 -1.50082e-014
lhumerus -15.381 -50.6752 15.6967
lradius 131.568
lwrist 59.1619
lhand -11.5672 11.1738
lfingers 7.12502
lthumb 14.474 -319.351
rfemur -408.561 -18.9517 376.951
rtibia 65.1204
rfoot 8.86187 -0.493189
rtoes 17.2073
lfemur -1.97216 10.3655 -12.6184
ltibia 28.228
lfoot -18.7263 6.4379
ltoes -15.0349
1234
root -4.2835 15.0679 14.0112 -176.266 32.8957 -181.419
lowerback 8.4975 -0.520739 -5.48367
upperback -4.45197 -1.31329 0.240905
thorax -9.4181 -0.257442 3.55583
lowerneck -10.4383 -12.0437 -10.5045
upperneck 16.3449 -16.7148 12.124
head 8.75008 -7.41262 3.75719
rclavicle -5.92316e-015 -6.75868e-015
rhumerus -4.25838 5.568 -36.9657
rradius 71.4466
rwrist -78.4627
rhand -15.5924 -4.49622
rfingers 7.12502
rthumb 10.5934 325.791
lclavicle -5.92316e-015 -6.75868e-015
lhumerus -15.6326 -50.2926 15.5183
lradius 131.95
lwrist 60.7521
lhand -11.7935 12.0216
lfingers 7.12502
lthumb 14.256 -318.488
rfemur -411.138 -20.1208 377.319
rtibia 68.1165
rfoot 11.1173 -1.23267
rtoes 20.1183
lfemur -1.74907 11.408 -13.5523
ltibia 27.8687
lfoot -19.114 6.34484
ltoes -14.7532
1235
root -4.36647 15.0463 14.029 -176.855 33.4439 -182.204
lowerback 9.07441 -0.473725 -6.15147
upperback -4.39367 -1.39467 0.0150048
thorax -9.68492 -0.2547 3.71545
lowerneck -10.3697 -12.0452 -10.5282
upperneck 16.0253 -16.727 12.2974
head 8.65044 -7.42162 3.82073
rclavicle -1.79403e-014 1.19271e-015
rhumerus -4.20053 4.66671 -37.8116
rradius 73.0327
rwrist -80.9731
rhand -16.3424 -5.19691
rfingers 7.12502
rthumb 9.86982 325.054
lclavicle -1.79403e-014 1.19271e-015
lhumerus -15.8126 -49.9417 15.3274
lradius 132.3
lwrist 62.2649
lhand -12.1235 12.8924
lfingers 7.12502
lthumb 13.938 -317.595
rfemur -413.774 -21.3533 377.827
rtibia 71.3611
rfoot 13.2176 -1.73517
rtoes 22.4345
lfemur -1.55693 12.3249 -14.4679
ltibia 27.6551
lfoot -19.5203 6.26579
ltoes -14.5511
1236
root -4.44565 15.0221 14.0466 -177.497 33.9111 -182.965
lowerback 9.67664 -0.434703 -6.79441
upperback -4.30664 -1.49246 -0.203869
thorax -9.93296 -0.260816 3.87159
lowerneck -10.2724 -12.0489 -10.5837
upperneck 15.6661 -16.7369 12.4811
head 8.53638 -7.43371 3.8943
rclavicle -3.67503e-014 -3.89618e-014
rhumerus -4.1637 3.81406 -38.6633
rradius 74.6324
rwrist -83.1617
rhand -17.1839 -5.82591
rfingers 7.12502
rthumb 9.05793 324.389
lclavicle -3.67503e-014 -3.89618e-014
lhumerus -15.9464 -49.5902 15.182
lradius 132.6
lwrist 63.6434
lhand -12.5231 13.7549
lfingers 7.12502
lthumb 13.5528 -316.706
rfemur -416.443 -22.6363 378.504
rtibia 74.8473
rfoot 15.1229 -1.85089
rtoes 24.0338
lfemur -1.3866 13.118 -15.3214
ltibia 27.5963
lfoot -19.95 6.19561
ltoes -14.5004
1237
root -4.52058 14.9957 14.0636 -178.18 34.3039 -183.666
lowerback 10.3062 -0.398629 -7.37576
upperback -4.18917 -1.59425 -0.413284
thorax -10.1626 -0.272583 4.00445
lowerneck -10.1412 -12.0556 -10.673
upperneck 15.2677 -16.7464 12.6812
head 8.40826 -7.44946 3.98012
rclavicle 5.39172e-014 2.32578e-014
rhumerus -4.16095 3.01627 -39.5132
rradius 76.2268
rwrist -84.9581
rhand -18.0498 -6.37108
rfingers 7.12502
rthumb 8.22223 323.809
lclavicle 5.39172e-014 2.32578e-014
lhumerus -16.0173 -49.2499 15.0787
lradius 132.84
lwrist 64.8422
lhand -12.9396 14.5639
lfingers 7.12502
lthumb 13.1514 -315.871
rfemur -419.119 -23.9534 379.373
rtibia 78.5524
rfoot 16.8016 -1.49276
rtoes 25.0561
lfemur -1.22054 13.7957 -16.0748
ltibia 27.6916
lfoot -20.4144 6.11097
ltoes -14.5425
1238
root -4.59097 14.9676 14.0795 -178.878 34.6382 -184.267
lowerback 10.9549 -0.362423 -7.86025
upperback -4.04394 -1.68845 -0.607795
thorax -10.3732 -0.287025 4.09806
lowerneck -10.0099 -12.075 -10.7762
upperneck 14.8767 -16.7677 12.8609
head 8.28402 -7.47338 4.05932
rclavicle 2.22973e-015 -1.92821e-014
rhumerus -4.19787 2.28848 -40.3553
rradius 77.8065
rwrist -86.3685
rhand -18.935 -6.80063
rfingers 7.12502
rthumb 7.36792 323.348
lclavicle 2.22973e-015 -1.92821e-014
lhumerus -16.0371 -48.9275 15.0214
lradius 133.027
lwrist 65.839
lhand -13.292 15.2838
lfingers 7.12502
lthumb 12.8117 -315.129
rfemur -421.79 -25.2866 380.469
rtibia 82.4393
rfoot 18.2445 -0.692583
rtoes 25.705
lfemur -1.05253 14.3698 -16.6927
ltibia 27.9374
lfoot -20.904 6.02511
ltoes -14.7451
1239
root -4.65669 14.9385 14.0939 -179.569 34.9365 -184.74
lowerback 11.6198 -0.318068 -8.20953
upperback -3.87829 -1.7568 -0.792916
thorax -10.5744 -0.297994 4.12132
lowerneck -9.87521 -12.1094 -10.8926
upperneck 14.5019 -16.807 13.0281
head 8.16739 -7.50702 4.13364
rclavicle -3.21072e-014 -3.02153e-014
rhumerus -4.30701 1.63091 -41.1829
rradius 79.3721
rwrist -87.4285
rhand -19.837 -7.10502
rfingers 7.12502
rthumb 6.49717 323.015
lclavicle -3.21072e-014 -3.02153e-014
lhumerus -15.9754 -48.6409 14.9793
lradius 133.163
lwrist 66.6465
lhand -13.5492 15.8956
lfingers 7.12502
lthumb 12.5637 -314.502
rfemur -424.446 -26.6158 381.827
rtibia 86.459
rfoot 19.4635 0.425452
rtoes 26.158
lfemur -0.877432 14.8667 -17.151
ltibia 28.325
lfoot -21.4113 5.94403
ltoes -15.1558
